<svg version="1.1" xmlns="http://www.w3.org/2000/svg" xmlns:xlink="http://www.w3.org/1999/xlink" x="0px" y="0px"
     viewBox="0 0 213.9 97.3" style="enable-background:new 0 0 213.9 97.3;" xml:space="preserve">
<style type="text/css">
	.st0{display:none;}
	.st1{display:inline;}
	.st2{fill:#008BD2;}
	.st3{display:inline;}
	.st4{fill:#FFFFFF;}
	.st5{clip-path:url(#SVGID_2_);fill:none;stroke:#FFFFFF;stroke-width:2;stroke-miterlimit:10;}
</style>
    <g id="Ebene_6" class="st0">
	<rect x="0.3" y="-0.3" class="st1" width="213.3" height="98"/>
</g>
    <g id="Ebene_4">
	<circle class="st2" cx="52.3" cy="48.5" r="38.8"/>
</g>
    <g id="Ebene_1" class="st0">
	<g class="st3">
		<path class="st4"
              d="M44.5,82.3V53.8h9.2c3.5,0,5.8,0.1,6.8,0.4c1.6,0.4,3,1.4,4.1,2.8c1.1,1.4,1.7,3.3,1.7,5.5    c0,1.7-0.3,3.2-1,4.4c-0.6,1.2-1.4,2.1-2.4,2.8c-1,0.7-2,1.1-3,1.4c-1.4,0.3-3.4,0.4-6,0.4h-3.8v10.7H44.5z M50.2,58.6v8.1h3.1    c2.3,0,3.8-0.1,4.5-0.4c0.8-0.3,1.4-0.8,1.8-1.4c0.4-0.6,0.7-1.4,0.7-2.2c0-1-0.3-1.9-0.9-2.6c-0.6-0.7-1.4-1.1-2.3-1.3    c-0.7-0.1-2.1-0.2-4.1-0.2H50.2z"/>
	</g>
        <g class="st3">
		<path d="M93.7,35V17.8h8.9v3.1H97v3.5h5.7v3.1H97V35H93.7z"/>
            <path d="M106.8,26.5c0.3-1.1,0.7-2,1.3-2.5c0.6-0.6,1.2-0.8,2.1-0.8c0.2,0,0.5,0,0.9,0.1c0.1,0,0.1,0,0.2,0l-0.4,3.6    c-0.2-0.1-0.4-0.2-0.7-0.2s-0.5-0.1-0.7-0.1c-0.9,0-1.5,0.3-1.9,0.8c-0.4,0.5-0.6,1.4-0.6,2.6V35H104V23.5h2.9L106.8,26.5z"/>
            <path d="M122.2,35h-2.8l0-1.7c-0.4,0.7-0.9,1.3-1.4,1.6s-1.2,0.5-2,0.5c-1.3,0-2.4-0.6-3.2-1.7s-1.2-2.6-1.2-4.5    c0-1.9,0.4-3.4,1.2-4.5c0.8-1.1,1.9-1.6,3.4-1.6c0.7,0,1.4,0.2,2,0.6s1,1,1.4,1.7v-1.9h2.8V35z M119.5,29.2c0-1-0.2-1.8-0.7-2.4    c-0.5-0.6-1.1-0.9-1.9-0.9c-0.8,0-1.4,0.3-1.9,0.9s-0.7,1.4-0.7,2.5s0.2,1.8,0.7,2.4s1.1,0.9,1.9,0.9c0.8,0,1.4-0.3,1.9-0.9    C119.3,31.1,119.5,30.3,119.5,29.2z"/>
            <path d="M124.4,35V23.5h2.9v1.8c0.5-0.8,1.1-1.3,1.7-1.7c0.6-0.4,1.3-0.5,2-0.5c0.8,0,1.4,0.2,2,0.5c0.5,0.3,1,0.8,1.3,1.4    c0.2,0.3,0.3,0.7,0.3,1.1s0.1,1,0.1,1.9v0.4V35h-2.9v-5.7c0-1.4-0.1-2.3-0.4-2.8c-0.3-0.5-0.8-0.7-1.5-0.7c-0.4,0-0.8,0.1-1.1,0.3    c-0.3,0.2-0.6,0.5-0.9,0.8c-0.2,0.3-0.3,0.6-0.4,0.9c-0.1,0.4-0.1,0.9-0.1,1.6v0.5V35H124.4z"/>
            <path d="M136.9,16.8h2.9v11.8l3.8-5.1h3.5l-4.1,5.1l4.5,6.4h-3.6l-4.1-6.1V35h-2.9V16.8z"/>
            <path d="M148.7,35v-8.9h-1.3v-2.6h1.3v-2.6c0-1.5,0.3-2.7,0.9-3.3c0.6-0.7,1.7-1,3.1-1c0.2,0,0.3,0,0.6,0.1c0.2,0,0.5,0.1,0.8,0.2    v2.7c-0.2-0.1-0.4-0.2-0.5-0.2s-0.3-0.1-0.5-0.1c-0.5,0-0.9,0.2-1.1,0.5s-0.3,0.8-0.3,1.6v2.3h1.9v2.6h-1.9V35H148.7z"/>
            <path d="M157.7,23.5v6c0,1,0.2,1.7,0.5,2.2c0.3,0.4,0.9,0.7,1.7,0.7c0.8,0,1.3-0.2,1.7-0.7s0.5-1.2,0.5-2.2v-6h2.9v6    c0,2-0.4,3.5-1.2,4.5s-2.1,1.4-3.9,1.4c-1.8,0-3.1-0.5-3.9-1.4s-1.3-2.4-1.3-4.5v-6H157.7z"/>
            <path d="M170.2,26.5c0.3-1.1,0.7-2,1.3-2.5c0.6-0.6,1.2-0.8,2.1-0.8c0.2,0,0.5,0,0.9,0.1c0.1,0,0.1,0,0.2,0l-0.4,3.6    c-0.2-0.1-0.4-0.2-0.7-0.2s-0.5-0.1-0.7-0.1c-0.9,0-1.5,0.3-1.9,0.8s-0.6,1.4-0.6,2.6V35h-2.9V23.5h2.9L170.2,26.5z"/>
            <path d="M175.8,35v-8.9h-1.4v-2.6h1.4v-3.8h2.9v3.8h1.4v2.6h-1.4V35H175.8z"/>
            <path d="M94.7,57l5.7-17.2h3.7L110,57h-3.7l-1.2-3.6h-5.8L98.2,57H94.7z M104.4,50.5l-1.7-5.5c0-0.2-0.1-0.4-0.2-0.8    s-0.2-0.9-0.2-1.5c-0.1,0.6-0.2,1.1-0.3,1.5s-0.1,0.7-0.2,0.9l-1.6,5.5H104.4z"/>
            <path d="M110.7,40.8c0-0.5,0.2-1,0.5-1.4s0.7-0.6,1.2-0.6c0.5,0,0.9,0.2,1.2,0.6c0.3,0.4,0.5,0.8,0.5,1.4s-0.2,1-0.5,1.4    c-0.3,0.4-0.7,0.6-1.2,0.6c-0.5,0-0.9-0.2-1.2-0.6S110.7,41.3,110.7,40.8z M110.9,57V45.5h2.9V57H110.9z"/>
            <path d="M119.1,48.5c0.3-1.1,0.7-2,1.3-2.5s1.2-0.8,2.1-0.8c0.2,0,0.5,0,0.9,0.1c0.1,0,0.1,0,0.2,0l-0.4,3.6    c-0.2-0.1-0.4-0.2-0.7-0.2c-0.2-0.1-0.5-0.1-0.7-0.1c-0.9,0-1.5,0.3-1.9,0.8c-0.4,0.5-0.6,1.4-0.6,2.6V57h-2.9V45.5h2.9    L119.1,48.5z"/>
            <path d="M124.4,62.2V45.5h2.8v1.9c0.4-0.8,0.9-1.3,1.4-1.7s1.2-0.6,2-0.6c1.4,0,2.6,0.5,3.4,1.6s1.2,2.6,1.2,4.5    c0,1.9-0.4,3.4-1.2,4.5c-0.8,1.1-1.9,1.7-3.2,1.7c-0.8,0-1.5-0.2-2-0.5s-1-0.9-1.4-1.6c0,0.3,0.1,0.6,0.1,0.9c0,0.3,0,0.7,0,1.2    v4.8H124.4z M127.1,51.2c0,1,0.2,1.8,0.7,2.4s1.1,0.9,1.9,0.9c0.8,0,1.4-0.3,1.9-0.9s0.7-1.4,0.7-2.4s-0.2-1.9-0.7-2.5    s-1.1-0.9-1.9-0.9c-0.8,0-1.4,0.3-1.9,0.9S127.1,50.2,127.1,51.2z"/>
            <path d="M147.5,51.3c0,1.8-0.5,3.2-1.6,4.4s-2.4,1.8-4,1.8c-1.6,0-3-0.6-4.1-1.8s-1.6-2.6-1.6-4.4c0-1.8,0.5-3.2,1.6-4.4    c1.1-1.2,2.4-1.8,4.1-1.8c1.6,0,3,0.6,4,1.7S147.5,49.5,147.5,51.3z M144.5,51.3c0-0.9-0.2-1.7-0.7-2.2s-1.1-0.8-1.9-0.8    c-0.8,0-1.5,0.3-1.9,0.8s-0.7,1.3-0.7,2.3c0,0.9,0.2,1.7,0.7,2.3s1.1,0.8,1.9,0.8c0.8,0,1.4-0.3,1.9-0.8    C144.3,53,144.5,52.2,144.5,51.3z"/>
            <path d="M152,48.5c0.3-1.1,0.7-2,1.3-2.5s1.2-0.8,2.1-0.8c0.2,0,0.5,0,0.9,0.1c0.1,0,0.1,0,0.2,0l-0.4,3.6    c-0.2-0.1-0.4-0.2-0.7-0.2c-0.2-0.1-0.5-0.1-0.7-0.1c-0.9,0-1.5,0.3-1.9,0.8c-0.4,0.5-0.6,1.4-0.6,2.6V57h-2.9V45.5h2.9L152,48.5z    "/>
            <path d="M157.6,57v-8.9h-1.4v-2.6h1.4v-3.8h2.9v3.8h1.4v2.6h-1.4V57H157.6z"/>
            <path class="st2"
                  d="M93.7,79V61.8h3.7c2,0,3.4,0.4,4.4,1.3s1.4,2.2,1.4,4c0,1.7-0.5,3-1.4,3.9s-2.3,1.4-4,1.4H97V79H93.7z     M97,69.6h0.5c0.9,0,1.5-0.2,1.9-0.6s0.6-1.1,0.6-2c0-0.8-0.2-1.5-0.6-1.8s-1-0.6-1.9-0.6H97V69.6z"/>
            <path class="st2"
                  d="M114.1,79h-2.8l0-1.7c-0.4,0.7-0.9,1.3-1.4,1.6c-0.6,0.3-1.2,0.5-2,0.5c-1.3,0-2.4-0.6-3.2-1.7    c-0.8-1.1-1.2-2.6-1.2-4.5c0-1.9,0.4-3.4,1.2-4.5c0.8-1.1,1.9-1.6,3.4-1.6c0.7,0,1.4,0.2,2,0.6c0.6,0.4,1,1,1.4,1.7v-1.9h2.8V79z     M111.4,73.2c0-1-0.2-1.8-0.7-2.4s-1.1-0.9-1.9-0.9c-0.8,0-1.4,0.3-1.9,0.9c-0.5,0.6-0.7,1.4-0.7,2.5s0.2,1.8,0.7,2.4    s1.1,0.9,1.9,0.9c0.8,0,1.4-0.3,1.9-0.9S111.4,74.3,111.4,73.2z"/>
            <path class="st2"
                  d="M119.2,70.5c0.3-1.1,0.7-2,1.3-2.5s1.2-0.8,2.1-0.8c0.2,0,0.5,0,0.9,0.1c0.1,0,0.1,0,0.2,0l-0.4,3.6    c-0.2-0.1-0.4-0.2-0.7-0.2c-0.2-0.1-0.5-0.1-0.7-0.1c-0.9,0-1.5,0.3-1.9,0.8c-0.4,0.5-0.6,1.4-0.6,2.6V79h-2.9V67.5h2.9    L119.2,70.5z"/>
            <path class="st2" d="M124.4,60.8h2.9v11.8l3.8-5.1h3.5l-4.1,5.1L135,79h-3.6l-4.1-6.1V79h-2.9V60.8z"/>
            <path class="st2"
                  d="M135.7,62.8c0-0.5,0.2-1,0.5-1.4s0.7-0.6,1.2-0.6c0.5,0,0.9,0.2,1.2,0.6c0.3,0.4,0.5,0.8,0.5,1.4    s-0.2,1-0.5,1.4c-0.3,0.4-0.7,0.6-1.2,0.6c-0.5,0-0.9-0.2-1.2-0.6S135.7,63.3,135.7,62.8z M135.9,79V67.5h2.9V79H135.9z"/>
            <path class="st2"
                  d="M141.3,79V67.5h2.9v1.8c0.5-0.8,1.1-1.3,1.7-1.7s1.3-0.5,2-0.5c0.8,0,1.4,0.2,2,0.5c0.5,0.3,1,0.8,1.3,1.4    c0.2,0.3,0.3,0.7,0.3,1.1c0.1,0.4,0.1,1,0.1,1.9v0.4V79h-2.9v-5.7c0-1.4-0.1-2.3-0.4-2.8c-0.3-0.5-0.8-0.7-1.5-0.7    c-0.4,0-0.8,0.1-1.1,0.3c-0.3,0.2-0.6,0.5-0.9,0.8c-0.2,0.3-0.3,0.6-0.4,0.9s-0.1,0.9-0.1,1.6v0.5V79H141.3z"/>
            <path class="st2"
                  d="M163.9,78.8c0,1.2-0.1,2.1-0.2,2.6c-0.1,0.5-0.3,0.9-0.7,1.3c-0.4,0.5-1,0.9-1.7,1.2s-1.5,0.4-2.5,0.4    c-1.6,0-2.9-0.3-3.7-0.9s-1.3-1.5-1.4-2.7h3.2c0,0.4,0.2,0.8,0.5,1c0.3,0.2,0.8,0.3,1.4,0.3c0.8,0,1.4-0.2,1.7-0.7    c0.4-0.5,0.5-1.3,0.5-2.3v-1.6c-0.4,0.7-0.9,1.2-1.4,1.6c-0.6,0.3-1.2,0.5-2,0.5c-1.4,0-2.5-0.6-3.3-1.7s-1.2-2.6-1.2-4.5    c0-1.9,0.4-3.4,1.2-4.5c0.8-1.1,1.9-1.6,3.4-1.6c0.7,0,1.4,0.2,2,0.6c0.6,0.4,1.1,1,1.4,1.7v-1.9h2.8V78.8z M161.3,73.2    c0-1-0.2-1.8-0.7-2.4c-0.5-0.6-1.1-0.9-1.9-0.9c-0.8,0-1.4,0.3-1.9,0.9c-0.5,0.6-0.7,1.4-0.7,2.4s0.2,1.8,0.7,2.4    c0.4,0.6,1.1,0.9,1.9,0.9c0.8,0,1.4-0.3,1.9-0.9S161.3,74.3,161.3,73.2z"/>
	</g>
</g>
    <g id="Ebene_1_Kopie">
	<g>
		<path class="st4"
              d="M44.5,82.3V53.8h9.2c3.5,0,5.8,0.1,6.8,0.4c1.6,0.4,3,1.4,4.1,2.8c1.1,1.4,1.7,3.3,1.7,5.5    c0,1.7-0.3,3.2-1,4.4c-0.6,1.2-1.4,2.1-2.4,2.8c-1,0.7-2,1.1-3,1.4c-1.4,0.3-3.4,0.4-6,0.4h-3.8v10.7H44.5z M50.2,58.6v8.1h3.1    c2.3,0,3.8-0.1,4.5-0.4c0.8-0.3,1.4-0.8,1.8-1.4c0.4-0.6,0.7-1.4,0.7-2.2c0-1-0.3-1.9-0.9-2.6c-0.6-0.7-1.4-1.1-2.3-1.3    c-0.7-0.1-2.1-0.2-4.1-0.2H50.2z"/>
	</g>
        <g fill="white">
		<path  d="M93.7,35V17.8h8.9v3.1H97v3.5h5.7v3.1H97V35H93.7z"/>
            <path d="M106.8,26.5c0.3-1.1,0.7-2,1.3-2.5c0.6-0.6,1.2-0.8,2.1-0.8c0.2,0,0.5,0,0.9,0.1c0.1,0,0.1,0,0.2,0l-0.4,3.6    c-0.2-0.1-0.4-0.2-0.7-0.2s-0.5-0.1-0.7-0.1c-0.9,0-1.5,0.3-1.9,0.8c-0.4,0.5-0.6,1.4-0.6,2.6V35H104V23.5h2.9L106.8,26.5z"/>
            <path d="M122.2,35h-2.8l0-1.7c-0.4,0.7-0.9,1.3-1.4,1.6s-1.2,0.5-2,0.5c-1.3,0-2.4-0.6-3.2-1.7s-1.2-2.6-1.2-4.5    c0-1.9,0.4-3.4,1.2-4.5c0.8-1.1,1.9-1.6,3.4-1.6c0.7,0,1.4,0.2,2,0.6s1,1,1.4,1.7v-1.9h2.8V35z M119.5,29.2c0-1-0.2-1.8-0.7-2.4    c-0.5-0.6-1.1-0.9-1.9-0.9c-0.8,0-1.4,0.3-1.9,0.9s-0.7,1.4-0.7,2.5s0.2,1.8,0.7,2.4s1.1,0.9,1.9,0.9c0.8,0,1.4-0.3,1.9-0.9    C119.3,31.1,119.5,30.3,119.5,29.2z"/>
            <path d="M124.4,35V23.5h2.9v1.8c0.5-0.8,1.1-1.3,1.7-1.7c0.6-0.4,1.3-0.5,2-0.5c0.8,0,1.4,0.2,2,0.5c0.5,0.3,1,0.8,1.3,1.4    c0.2,0.3,0.3,0.7,0.3,1.1s0.1,1,0.1,1.9v0.4V35h-2.9v-5.7c0-1.4-0.1-2.3-0.4-2.8c-0.3-0.5-0.8-0.7-1.5-0.7c-0.4,0-0.8,0.1-1.1,0.3    c-0.3,0.2-0.6,0.5-0.9,0.8c-0.2,0.3-0.3,0.6-0.4,0.9c-0.1,0.4-0.1,0.9-0.1,1.6v0.5V35H124.4z"/>
            <path d="M136.9,16.8h2.9v11.8l3.8-5.1h3.5l-4.1,5.1l4.5,6.4h-3.6l-4.1-6.1V35h-2.9V16.8z"/>
            <path d="M148.7,35v-8.9h-1.3v-2.6h1.3v-2.6c0-1.5,0.3-2.7,0.9-3.3c0.6-0.7,1.7-1,3.1-1c0.2,0,0.3,0,0.6,0.1c0.2,0,0.5,0.1,0.8,0.2    v2.7c-0.2-0.1-0.4-0.2-0.5-0.2s-0.3-0.1-0.5-0.1c-0.5,0-0.9,0.2-1.1,0.5s-0.3,0.8-0.3,1.6v2.3h1.9v2.6h-1.9V35H148.7z"/>
            <path d="M157.7,23.5v6c0,1,0.2,1.7,0.5,2.2c0.3,0.4,0.9,0.7,1.7,0.7c0.8,0,1.3-0.2,1.7-0.7s0.5-1.2,0.5-2.2v-6h2.9v6    c0,2-0.4,3.5-1.2,4.5s-2.1,1.4-3.9,1.4c-1.8,0-3.1-0.5-3.9-1.4s-1.3-2.4-1.3-4.5v-6H157.7z"/>
            <path d="M170.2,26.5c0.3-1.1,0.7-2,1.3-2.5c0.6-0.6,1.2-0.8,2.1-0.8c0.2,0,0.5,0,0.9,0.1c0.1,0,0.1,0,0.2,0l-0.4,3.6    c-0.2-0.1-0.4-0.2-0.7-0.2s-0.5-0.1-0.7-0.1c-0.9,0-1.5,0.3-1.9,0.8s-0.6,1.4-0.6,2.6V35h-2.9V23.5h2.9L170.2,26.5z"/>
            <path d="M175.8,35v-8.9h-1.4v-2.6h1.4v-3.8h2.9v3.8h1.4v2.6h-1.4V35H175.8z"/>
            <path d="M94.7,57l5.7-17.2h3.7L110,57h-3.7l-1.2-3.6h-5.8L98.2,57H94.7z M104.4,50.5l-1.7-5.5c0-0.2-0.1-0.4-0.2-0.8    s-0.2-0.9-0.2-1.5c-0.1,0.6-0.2,1.1-0.3,1.5s-0.1,0.7-0.2,0.9l-1.6,5.5H104.4z"/>
            <path d="M110.7,40.8c0-0.5,0.2-1,0.5-1.4s0.7-0.6,1.2-0.6c0.5,0,0.9,0.2,1.2,0.6c0.3,0.4,0.5,0.8,0.5,1.4s-0.2,1-0.5,1.4    c-0.3,0.4-0.7,0.6-1.2,0.6c-0.5,0-0.9-0.2-1.2-0.6S110.7,41.3,110.7,40.8z M110.9,57V45.5h2.9V57H110.9z"/>
            <path d="M119.1,48.5c0.3-1.1,0.7-2,1.3-2.5s1.2-0.8,2.1-0.8c0.2,0,0.5,0,0.9,0.1c0.1,0,0.1,0,0.2,0l-0.4,3.6    c-0.2-0.1-0.4-0.2-0.7-0.2c-0.2-0.1-0.5-0.1-0.7-0.1c-0.9,0-1.5,0.3-1.9,0.8c-0.4,0.5-0.6,1.4-0.6,2.6V57h-2.9V45.5h2.9    L119.1,48.5z"/>
            <path d="M124.4,62.2V45.5h2.8v1.9c0.4-0.8,0.9-1.3,1.4-1.7s1.2-0.6,2-0.6c1.4,0,2.6,0.5,3.4,1.6s1.2,2.6,1.2,4.5    c0,1.9-0.4,3.4-1.2,4.5c-0.8,1.1-1.9,1.7-3.2,1.7c-0.8,0-1.5-0.2-2-0.5s-1-0.9-1.4-1.6c0,0.3,0.1,0.6,0.1,0.9c0,0.3,0,0.7,0,1.2    v4.8H124.4z M127.1,51.2c0,1,0.2,1.8,0.7,2.4s1.1,0.9,1.9,0.9c0.8,0,1.4-0.3,1.9-0.9s0.7-1.4,0.7-2.4s-0.2-1.9-0.7-2.5    s-1.1-0.9-1.9-0.9c-0.8,0-1.4,0.3-1.9,0.9S127.1,50.2,127.1,51.2z"/>
            <path d="M147.5,51.3c0,1.8-0.5,3.2-1.6,4.4s-2.4,1.8-4,1.8c-1.6,0-3-0.6-4.1-1.8s-1.6-2.6-1.6-4.4c0-1.8,0.5-3.2,1.6-4.4    c1.1-1.2,2.4-1.8,4.1-1.8c1.6,0,3,0.6,4,1.7S147.5,49.5,147.5,51.3z M144.5,51.3c0-0.9-0.2-1.7-0.7-2.2s-1.1-0.8-1.9-0.8    c-0.8,0-1.5,0.3-1.9,0.8s-0.7,1.3-0.7,2.3c0,0.9,0.2,1.7,0.7,2.3s1.1,0.8,1.9,0.8c0.8,0,1.4-0.3,1.9-0.8    C144.3,53,144.5,52.2,144.5,51.3z"/>
            <path d="M152,48.5c0.3-1.1,0.7-2,1.3-2.5s1.2-0.8,2.1-0.8c0.2,0,0.5,0,0.9,0.1c0.1,0,0.1,0,0.2,0l-0.4,3.6    c-0.2-0.1-0.4-0.2-0.7-0.2c-0.2-0.1-0.5-0.1-0.7-0.1c-0.9,0-1.5,0.3-1.9,0.8c-0.4,0.5-0.6,1.4-0.6,2.6V57h-2.9V45.5h2.9L152,48.5z    "/>
            <path d="M157.6,57v-8.9h-1.4v-2.6h1.4v-3.8h2.9v3.8h1.4v2.6h-1.4V57H157.6z"/>
            <path class="st2"
                  d="M93.7,79V61.8h3.7c2,0,3.4,0.4,4.4,1.3s1.4,2.2,1.4,4c0,1.7-0.5,3-1.4,3.9s-2.3,1.4-4,1.4H97V79H93.7z     M97,69.6h0.5c0.9,0,1.5-0.2,1.9-0.6s0.6-1.1,0.6-2c0-0.8-0.2-1.5-0.6-1.8s-1-0.6-1.9-0.6H97V69.6z"/>
            <path class="st2"
                  d="M114.1,79h-2.8l0-1.7c-0.4,0.7-0.9,1.3-1.4,1.6c-0.6,0.3-1.2,0.5-2,0.5c-1.3,0-2.4-0.6-3.2-1.7    c-0.8-1.1-1.2-2.6-1.2-4.5c0-1.9,0.4-3.4,1.2-4.5c0.8-1.1,1.9-1.6,3.4-1.6c0.7,0,1.4,0.2,2,0.6c0.6,0.4,1,1,1.4,1.7v-1.9h2.8V79z     M111.4,73.2c0-1-0.2-1.8-0.7-2.4s-1.1-0.9-1.9-0.9c-0.8,0-1.4,0.3-1.9,0.9c-0.5,0.6-0.7,1.4-0.7,2.5s0.2,1.8,0.7,2.4    s1.1,0.9,1.9,0.9c0.8,0,1.4-0.3,1.9-0.9S111.4,74.3,111.4,73.2z"/>
            <path class="st2"
                  d="M119.2,70.5c0.3-1.1,0.7-2,1.3-2.5s1.2-0.8,2.1-0.8c0.2,0,0.5,0,0.9,0.1c0.1,0,0.1,0,0.2,0l-0.4,3.6    c-0.2-0.1-0.4-0.2-0.7-0.2c-0.2-0.1-0.5-0.1-0.7-0.1c-0.9,0-1.5,0.3-1.9,0.8c-0.4,0.5-0.6,1.4-0.6,2.6V79h-2.9V67.5h2.9    L119.2,70.5z"/>
            <path class="st2" d="M124.4,60.8h2.9v11.8l3.8-5.1h3.5l-4.1,5.1L135,79h-3.6l-4.1-6.1V79h-2.9V60.8z"/>
            <path class="st2"
                  d="M135.7,62.8c0-0.5,0.2-1,0.5-1.4s0.7-0.6,1.2-0.6c0.5,0,0.9,0.2,1.2,0.6c0.3,0.4,0.5,0.8,0.5,1.4    s-0.2,1-0.5,1.4c-0.3,0.4-0.7,0.6-1.2,0.6c-0.5,0-0.9-0.2-1.2-0.6S135.7,63.3,135.7,62.8z M135.9,79V67.5h2.9V79H135.9z"/>
            <path class="st2"
                  d="M141.3,79V67.5h2.9v1.8c0.5-0.8,1.1-1.3,1.7-1.7s1.3-0.5,2-0.5c0.8,0,1.4,0.2,2,0.5c0.5,0.3,1,0.8,1.3,1.4    c0.2,0.3,0.3,0.7,0.3,1.1c0.1,0.4,0.1,1,0.1,1.9v0.4V79h-2.9v-5.7c0-1.4-0.1-2.3-0.4-2.8c-0.3-0.5-0.8-0.7-1.5-0.7    c-0.4,0-0.8,0.1-1.1,0.3c-0.3,0.2-0.6,0.5-0.9,0.8c-0.2,0.3-0.3,0.6-0.4,0.9s-0.1,0.9-0.1,1.6v0.5V79H141.3z"/>
            <path class="st2"
                  d="M163.9,78.8c0,1.2-0.1,2.1-0.2,2.6c-0.1,0.5-0.3,0.9-0.7,1.3c-0.4,0.5-1,0.9-1.7,1.2s-1.5,0.4-2.5,0.4    c-1.6,0-2.9-0.3-3.7-0.9s-1.3-1.5-1.4-2.7h3.2c0,0.4,0.2,0.8,0.5,1c0.3,0.2,0.8,0.3,1.4,0.3c0.8,0,1.4-0.2,1.7-0.7    c0.4-0.5,0.5-1.3,0.5-2.3v-1.6c-0.4,0.7-0.9,1.2-1.4,1.6c-0.6,0.3-1.2,0.5-2,0.5c-1.4,0-2.5-0.6-3.3-1.7s-1.2-2.6-1.2-4.5    c0-1.9,0.4-3.4,1.2-4.5c0.8-1.1,1.9-1.6,3.4-1.6c0.7,0,1.4,0.2,2,0.6c0.6,0.4,1.1,1,1.4,1.7v-1.9h2.8V78.8z M161.3,73.2    c0-1-0.2-1.8-0.7-2.4c-0.5-0.6-1.1-0.9-1.9-0.9c-0.8,0-1.4,0.3-1.9,0.9c-0.5,0.6-0.7,1.4-0.7,2.4s0.2,1.8,0.7,2.4    c0.4,0.6,1.1,0.9,1.9,0.9c0.8,0,1.4-0.3,1.9-0.9S161.3,74.3,161.3,73.2z"/>
	</g>
</g>
    <g id="Ebene_7">
	<g>
		<defs>
			<circle id="SVGID_1_" cx="52.3" cy="48.5" r="38.8"/>
		</defs>
        <clipPath id="SVGID_2_">
			<use xlink:href="#SVGID_1_" style="overflow:visible;"/>
		</clipPath>
        <path class="st5"
              d="M69.3,93.3H38.7c-1.8,0-3.3-1.5-3.3-3.3V51.5c0-1.8,1.5-3.3,3.3-3.3h30.5c1.8,0,3.3,1.5,3.3,3.3v38.6    C72.5,91.9,71.1,93.3,69.3,93.3z"/>
	</g>
</g>
    <g id="Ebene_5">
	<g>
		<polygon class="st4" points="24.1,37.1 26.1,36 34.9,37.6 27.6,40.8   "/>
        <path class="st4"
              d="M48.9,39c-12.9,4.3-20.6,2.8-20.6,2.8L44.1,35l-8.5-9l1.9-2.1l18.7,6.3c0,0,9.3-3.7,14.2-5.6    c3.4-1.3,5.4-1,6.3-0.6c0.4,0.2,0.5,0.5,0.5,0.5c0.8,3.1-3.1,4.5-3.1,4.5S50.6,38.4,48.9,39z"/>
	</g>
</g>
</svg>