<svg version="1.2" xmlns="http://www.w3.org/2000/svg" viewBox="0 0 213.9 97.3" width="214" height="98">
	<defs>
		<clipPath clipPathUnits="userSpaceOnUse" id="cp1">
			<path d="m52.3 87.3c-21.46 0-38.8-17.34-38.8-38.8 0-21.46 17.34-38.8 38.8-38.8 21.46 0 38.8 17.34 38.8 38.8 0 21.46-17.34 38.8-38.8 38.8z"/>
		</clipPath>
	</defs>
	<style>
		.s0 { fill: #008bd2 } 
		.s1 { fill: #ffffff } 
		.s2 { fill: none;stroke: #ffffff;stroke-miterlimit:10;stroke-width: 2 } 
	</style>
	<g id="Ebene_4">
		<path class="s0" d="m52.3 87.3c-21.46 0-38.8-17.34-38.8-38.8 0-21.46 17.34-38.8 38.8-38.8 21.46 0 38.8 17.34 38.8 38.8 0 21.46-17.34 38.8-38.8 38.8z"/>
	</g>
	<g id="Ebene_1_Kopie">
		<g>
			<path class="s1" d="m44.5 82.3v-28.5h9.2c3.5 0 5.8 0.1 6.8 0.4 1.6 0.4 3 1.4 4.1 2.8 1.1 1.4 1.7 3.3 1.7 5.5 0 1.7-0.3 3.2-1 4.4-0.6 1.2-1.4 2.1-2.4 2.8-1 0.7-2 1.1-3 1.4-1.4 0.3-3.4 0.4-6 0.4h-3.8v10.7h-5.6zm5.7-23.7v8.1h3.1c2.3 0 3.8-0.1 4.5-0.4 0.8-0.3 1.4-0.8 1.8-1.4 0.4-0.6 0.7-1.4 0.7-2.2 0-1-0.3-1.9-0.9-2.6-0.6-0.7-1.4-1.1-2.3-1.3-0.7-0.1-2.1-0.2-4.1-0.2z"/>
		</g>
		<g>
			<path class="s0" d="m93.7 35v-17.2h8.9v3.1h-5.6v3.5h5.7v3.1h-5.7v7.5z"/>
			<path class="s0" d="m106.8 26.5c0.3-1.1 0.7-2 1.3-2.5 0.6-0.6 1.2-0.8 2.1-0.8 0.2 0 0.5 0 0.9 0.1 0.1 0 0.1 0 0.2 0l-0.4 3.6c-0.2-0.1-0.4-0.2-0.7-0.2-0.3 0-0.5-0.1-0.7-0.1-0.9 0-1.5 0.3-1.9 0.8-0.4 0.5-0.6 1.4-0.6 2.6v5h-3v-11.5h2.9z"/>
			<path class="s0" d="m122.2 35h-2.8v-1.7c-0.4 0.7-0.9 1.3-1.4 1.6-0.5 0.3-1.2 0.5-2 0.5-1.3 0-2.4-0.6-3.2-1.7q-1.2-1.65-1.2-4.5 0-2.85 1.2-4.5c0.8-1.1 1.9-1.6 3.4-1.6 0.7 0 1.4 0.2 2 0.6 0.6 0.4 1 1 1.4 1.7v-1.9h2.8v11.5zm-2.7-5.8c0-1-0.2-1.8-0.7-2.4-0.5-0.6-1.1-0.9-1.9-0.9-0.8 0-1.4 0.3-1.9 0.9-0.5 0.6-0.7 1.4-0.7 2.5 0 1.1 0.2 1.8 0.7 2.4 0.5 0.6 1.1 0.9 1.9 0.9 0.8 0 1.4-0.3 1.9-0.9 0.5-0.6 0.7-1.4 0.7-2.5z"/>
			<path class="s0" d="m124.4 35v-11.5h2.9v1.8c0.5-0.8 1.1-1.3 1.7-1.7 0.6-0.4 1.3-0.5 2-0.5 0.8 0 1.4 0.2 2 0.5 0.5 0.3 1 0.8 1.3 1.4 0.2 0.3 0.3 0.7 0.3 1.1 0 0.4 0.1 1 0.1 1.9v0.4 6.6h-2.9v-5.7c0-1.4-0.1-2.3-0.4-2.8-0.3-0.5-0.8-0.7-1.5-0.7-0.4 0-0.8 0.1-1.1 0.3-0.3 0.2-0.6 0.5-0.9 0.8-0.2 0.3-0.3 0.6-0.4 0.9-0.1 0.4-0.1 0.9-0.1 1.6v0.5 5.1z"/>
			<path class="s0" d="m136.9 16.8h2.9v11.8l3.8-5.1h3.5l-4.1 5.1 4.5 6.4h-3.6l-4.1-6.1v6.1h-2.9z"/>
			<path class="s0" d="m148.7 35v-8.9h-1.3v-2.6h1.3v-2.6c0-1.5 0.3-2.7 0.9-3.3 0.6-0.7 1.7-1 3.1-1 0.2 0 0.3 0 0.6 0.1 0.2 0 0.5 0.1 0.8 0.2v2.7c-0.2-0.1-0.4-0.2-0.5-0.2-0.1 0-0.3-0.1-0.5-0.1-0.5 0-0.9 0.2-1.1 0.5-0.2 0.3-0.3 0.8-0.3 1.6v2.3h1.9v2.6h-1.9v8.7z"/>
			<path class="s0" d="m157.7 23.5v6c0 1 0.2 1.7 0.5 2.2 0.3 0.4 0.9 0.7 1.7 0.7 0.8 0 1.3-0.2 1.7-0.7 0.4-0.5 0.5-1.2 0.5-2.2v-6h2.9v6q0 3-1.2 4.5c-0.8 1-2.1 1.4-3.9 1.4-1.8 0-3.1-0.5-3.9-1.4-0.8-0.9-1.3-2.4-1.3-4.5v-6z"/>
			<path class="s0" d="m170.2 26.5c0.3-1.1 0.7-2 1.3-2.5 0.6-0.6 1.2-0.8 2.1-0.8 0.2 0 0.5 0 0.9 0.1 0.1 0 0.1 0 0.2 0l-0.4 3.6c-0.2-0.1-0.4-0.2-0.7-0.2-0.3 0-0.5-0.1-0.7-0.1-0.9 0-1.5 0.3-1.9 0.8-0.4 0.5-0.6 1.4-0.6 2.6v5h-2.9v-11.5h2.9z"/>
			<path class="s0" d="m175.8 35v-8.9h-1.4v-2.6h1.4v-3.8h2.9v3.8h1.4v2.6h-1.4v8.9z"/>
			<path class="s0" d="m94.7 57l5.7-17.2h3.7l5.9 17.2h-3.7l-1.2-3.6h-5.8l-1.1 3.6zm9.7-6.5l-1.7-5.5c0-0.2-0.1-0.4-0.2-0.8-0.1-0.4-0.2-0.9-0.2-1.5q-0.15 0.9-0.3 1.5c-0.1 0.4-0.1 0.7-0.2 0.9l-1.6 5.5h4.2z"/>
			<path class="s0" d="m110.7 40.8c0-0.5 0.2-1 0.5-1.4q0.45-0.6 1.2-0.6 0.75 0 1.2 0.6c0.3 0.4 0.5 0.8 0.5 1.4 0 0.6-0.2 1-0.5 1.4q-0.45 0.6-1.2 0.6-0.75 0-1.2-0.6c-0.3-0.4-0.5-0.9-0.5-1.4zm0.2 16.2v-11.5h2.9v11.5z"/>
			<path class="s0" d="m119.1 48.5c0.3-1.1 0.7-2 1.3-2.5 0.6-0.5 1.2-0.8 2.1-0.8 0.2 0 0.5 0 0.9 0.1 0.1 0 0.1 0 0.2 0l-0.4 3.6c-0.2-0.1-0.4-0.2-0.7-0.2-0.2-0.1-0.5-0.1-0.7-0.1-0.9 0-1.5 0.3-1.9 0.8-0.4 0.5-0.6 1.4-0.6 2.6v5h-2.9v-11.5h2.9z"/>
			<path class="s0" d="m124.4 62.2v-16.7h2.8v1.9c0.4-0.8 0.9-1.3 1.4-1.7 0.5-0.4 1.2-0.6 2-0.6 1.4 0 2.6 0.5 3.4 1.6q1.2 1.65 1.2 4.5 0 2.85-1.2 4.5c-0.8 1.1-1.9 1.7-3.2 1.7-0.8 0-1.5-0.2-2-0.5-0.5-0.3-1-0.9-1.4-1.6 0 0.3 0.1 0.6 0.1 0.9q0 0.45 0 1.2v4.8zm2.7-11c0 1 0.2 1.8 0.7 2.4 0.5 0.6 1.1 0.9 1.9 0.9 0.8 0 1.4-0.3 1.9-0.9 0.5-0.6 0.7-1.4 0.7-2.4 0-1-0.2-1.9-0.7-2.5-0.5-0.6-1.1-0.9-1.9-0.9-0.8 0-1.4 0.3-1.9 0.9-0.5 0.6-0.7 1.5-0.7 2.5z"/>
			<path class="s0" d="m147.5 51.3c0 1.8-0.5 3.2-1.6 4.4-1.1 1.2-2.4 1.8-4 1.8-1.6 0-3-0.6-4.1-1.8-1.1-1.2-1.6-2.6-1.6-4.4 0-1.8 0.5-3.2 1.6-4.4 1.1-1.2 2.4-1.8 4.1-1.8 1.6 0 3 0.6 4 1.7 1 1.1 1.6 2.7 1.6 4.5zm-3 0c0-0.9-0.2-1.7-0.7-2.2-0.5-0.5-1.1-0.8-1.9-0.8-0.8 0-1.5 0.3-1.9 0.8-0.4 0.5-0.7 1.3-0.7 2.3 0 0.9 0.2 1.7 0.7 2.3 0.5 0.6 1.1 0.8 1.9 0.8 0.8 0 1.4-0.3 1.9-0.8 0.5-0.7 0.7-1.5 0.7-2.4z"/>
			<path class="s0" d="m152 48.5c0.3-1.1 0.7-2 1.3-2.5 0.6-0.5 1.2-0.8 2.1-0.8 0.2 0 0.5 0 0.9 0.1 0.1 0 0.1 0 0.2 0l-0.4 3.6c-0.2-0.1-0.4-0.2-0.7-0.2-0.2-0.1-0.5-0.1-0.7-0.1-0.9 0-1.5 0.3-1.9 0.8-0.4 0.5-0.6 1.4-0.6 2.6v5h-2.9v-11.5h2.9z"/>
			<path class="s0" d="m157.6 57v-8.9h-1.4v-2.6h1.4v-3.8h2.9v3.8h1.4v2.6h-1.4v8.9z"/>
			<path class="s0" d="m93.7 79v-17.2h3.7c2 0 3.4 0.4 4.4 1.3 1 0.9 1.4 2.2 1.4 4 0 1.7-0.5 3-1.4 3.9-0.9 0.9-2.3 1.4-4 1.4h-0.8v6.6zm3.3-9.4h0.5c0.9 0 1.5-0.2 1.9-0.6 0.4-0.4 0.6-1.1 0.6-2 0-0.8-0.2-1.5-0.6-1.8-0.4-0.3-1-0.6-1.9-0.6h-0.5z"/>
			<path class="s0" d="m114.1 79h-2.8v-1.7c-0.4 0.7-0.9 1.3-1.4 1.6-0.6 0.3-1.2 0.5-2 0.5-1.3 0-2.4-0.6-3.2-1.7q-1.2-1.65-1.2-4.5 0-2.85 1.2-4.5c0.8-1.1 1.9-1.6 3.4-1.6 0.7 0 1.4 0.2 2 0.6 0.6 0.4 1 1 1.4 1.7v-1.9h2.8v11.5zm-2.7-5.8c0-1-0.2-1.8-0.7-2.4-0.5-0.6-1.1-0.9-1.9-0.9-0.8 0-1.4 0.3-1.9 0.9-0.5 0.6-0.7 1.4-0.7 2.5 0 1.1 0.2 1.8 0.7 2.4 0.5 0.6 1.1 0.9 1.9 0.9 0.8 0 1.4-0.3 1.9-0.9 0.5-0.6 0.7-1.4 0.7-2.5z"/>
			<path class="s0" d="m119.2 70.5c0.3-1.1 0.7-2 1.3-2.5 0.6-0.5 1.2-0.8 2.1-0.8 0.2 0 0.5 0 0.9 0.1 0.1 0 0.1 0 0.2 0l-0.4 3.6c-0.2-0.1-0.4-0.2-0.7-0.2-0.2-0.1-0.5-0.1-0.7-0.1-0.9 0-1.5 0.3-1.9 0.8-0.4 0.5-0.6 1.4-0.6 2.6v5h-2.9v-11.5h2.9z"/>
			<path class="s0" d="m124.4 60.8h2.9v11.8l3.8-5.1h3.5l-4.1 5.1 4.5 6.4h-3.6l-4.1-6.1v6.1h-2.9z"/>
			<path class="s0" d="m135.7 62.8c0-0.5 0.2-1 0.5-1.4q0.45-0.6 1.2-0.6 0.75 0 1.2 0.6c0.3 0.4 0.5 0.8 0.5 1.4 0 0.6-0.2 1-0.5 1.4q-0.45 0.6-1.2 0.6-0.75 0-1.2-0.6c-0.3-0.4-0.5-0.9-0.5-1.4zm0.2 16.2v-11.5h2.9v11.5z"/>
			<path class="s0" d="m141.3 79v-11.5h2.9v1.8c0.5-0.8 1.1-1.3 1.7-1.7 0.6-0.4 1.3-0.5 2-0.5 0.8 0 1.4 0.2 2 0.5 0.5 0.3 1 0.8 1.3 1.4 0.2 0.3 0.3 0.7 0.3 1.1 0.1 0.4 0.1 1 0.1 1.9v0.4 6.6h-2.9v-5.7c0-1.4-0.1-2.3-0.4-2.8-0.3-0.5-0.8-0.7-1.5-0.7-0.4 0-0.8 0.1-1.1 0.3-0.3 0.2-0.6 0.5-0.9 0.8-0.2 0.3-0.3 0.6-0.4 0.9-0.1 0.3-0.1 0.9-0.1 1.6v0.5 5.1z"/>
			<path class="s0" d="m163.9 78.8c0 1.2-0.1 2.1-0.2 2.6-0.1 0.5-0.3 0.9-0.7 1.3-0.4 0.5-1 0.9-1.7 1.2-0.7 0.3-1.5 0.4-2.5 0.4-1.6 0-2.9-0.3-3.7-0.9-0.8-0.6-1.3-1.5-1.4-2.7h3.2c0 0.4 0.2 0.8 0.5 1 0.3 0.2 0.8 0.3 1.4 0.3 0.8 0 1.4-0.2 1.7-0.7 0.4-0.5 0.5-1.3 0.5-2.3v-1.6c-0.4 0.7-0.9 1.2-1.4 1.6-0.6 0.3-1.2 0.5-2 0.5-1.4 0-2.5-0.6-3.3-1.7q-1.2-1.65-1.2-4.5 0-2.85 1.2-4.5c0.8-1.1 1.9-1.6 3.4-1.6 0.7 0 1.4 0.2 2 0.6 0.6 0.4 1.1 1 1.4 1.7v-1.9h2.8zm-2.6-5.6c0-1-0.2-1.8-0.7-2.4-0.5-0.6-1.1-0.9-1.9-0.9-0.8 0-1.4 0.3-1.9 0.9-0.5 0.6-0.7 1.4-0.7 2.4 0 1 0.2 1.8 0.7 2.4 0.4 0.6 1.1 0.9 1.9 0.9 0.8 0 1.4-0.3 1.9-0.9 0.5-0.6 0.7-1.3 0.7-2.4z"/>
		</g>
	</g>
	<g id="Ebene_7">
		<g>
			<g id="Clip-Path" clip-path="url(#cp1)">
				<path class="s2" d="m69.3 93.3h-30.6c-1.8 0-3.3-1.5-3.3-3.3v-38.5c0-1.8 1.5-3.3 3.3-3.3h30.5c1.8 0 3.3 1.5 3.3 3.3v38.6c0 1.8-1.4 3.2-3.2 3.2z"/>
			</g>
		</g>
	</g>
	<g id="Ebene_5">
		<g>
			<path class="s1" d="m24.1 37.1l2-1.1 8.8 1.6-7.3 3.2z"/>
			<path class="s1" d="m48.9 39c-12.9 4.3-20.6 2.8-20.6 2.8l15.8-6.8-8.5-9 1.9-2.1 18.7 6.3c0 0 9.3-3.7 14.2-5.6 3.4-1.3 5.4-1 6.3-0.6 0.4 0.2 0.5 0.5 0.5 0.5 0.8 3.1-3.1 4.5-3.1 4.5 0 0-23.5 9.4-25.2 10z"/>
		</g>
	</g>
</svg>